<?xml version="1.0" encoding="utf-8"?>
<!-- Generator: Adobe Illustrator 27.0.0, SVG Export Plug-In . SVG Version: 6.00 Build 0)  -->
<svg version="1.1" id="Layer_1" xmlns="http://www.w3.org/2000/svg" xmlns:xlink="http://www.w3.org/1999/xlink" x="0px" y="0px"
	 viewBox="0 0 219.38 162.22" style="enable-background:new 0 0 219.38 162.22;" xml:space="preserve">
<style type="text/css">
	.st0{fill:none;stroke:#4B1706;stroke-width:4;stroke-linecap:round;stroke-linejoin:round;stroke-miterlimit:10;}
</style>
<path class="st0" d="M162.37,24.56l13.55-22.28h37.84l-85.14,157.67H97.09L2.14,2.28h43.1l59.91,105.46V57.92l0,0
	c-4.68-1.57-8.06-5.99-8.06-11.21c0-6.53,5.29-11.83,11.82-11.83c6.53,0,11.83,5.3,11.83,11.83c0,4.88-2.96,9.06-7.18,10.87l0,0
	v94.66l56.05-104.06c0,0-14.01-3.15-18.91-22.42c-4.91-19.27-3.51-23.48-3.51-23.48H72.21c0,0-0.7,4.56-3.5,12.27
	c-2.8,7.7-3.16,6.71-3.16,6.71"/>
</svg>
